PathFileType	4	(X/Y/Z)	/Users/niels/Desktop/University/Third Semester/Perception and Action/Exam/Gymnastics Motion Tracking/Code for Gym Tracking/Analyzed Data/Webcam_Backflip/id3_5_baseline_Sports2D/id3_5_baseline_Sports2D_px_person00.trc
DataRate	CameraRate	NumFrames	NumMarkers	Units	OrigDataRate	OrigDataStartFrame	OrigNumFrames
29.81132075471698	29.81132075471698	11	22	m	29.81132075471698	0	159
Frame#	Time	Hip			RHip			RKnee			RAnkle			RBigToe			RSmallToe			RHeel			LHip			LKnee			LAnkle			LBigToe			LSmallToe			LHeel			Neck			Head			Nose			RShoulder			RElbow			RWrist			LShoulder			LElbow			LWrist		
		X1	Y1	Z1	X2	Y2	Z2	X3	Y3	Z3	X4	Y4	Z4	X5	Y5	Z5	X6	Y6	Z6	X7	Y7	Z7	X8	Y8	Z8	X9	Y9	Z9	X10	Y10	Z10	X11	Y11	Z11	X12	Y12	Z12	X13	Y13	Z13	X14	Y14	Z14	X15	Y15	Z15	X16	Y16	Z16	X17	Y17	Z17	X18	Y18	Z18	X19	Y19	Z19	X20	Y20	Z20	X21	Y21	Z21	X22	Y22	Z22
0	0.0	0.9836657355393739	-0.5731018841133697	0.0	0.9852293812668448	-0.5699670200264095	0.0	0.989953485099722	-0.6782340449553322	0.0	0.9773992604886765	-0.795928025712939	0.0	1.0119296690267572	-0.8131828867402632	0.0	1.0009453081918753	-0.8178896962915906	0.0	0.9679833820025471	-0.8100498531172252	0.0	0.9868069899669191	-0.5683970918545194	0.0	0.9899490484748522	-0.6782320318024966	0.0	0.9789682976229704	-0.7865121994568138	0.0	1.0103592787945799	-0.8053372525505581	0.0	1.0056543095861554	-0.8021984454423013	0.0	0.9648485866656886	-0.8022075976238252	0.0	0.9805490262530884	-0.40677022464765	0.0	0.9711500572373643	-0.32831357286545837	0.0	1.0025267306594992	-0.3644090300920239	0.0	0.9805471536362914	-0.4287378889441201	0.0	1.0574173974985712	-0.44289555154569993	0.0	1.128033687899999	-0.427252632378958	0.0	0.9711242095656513	-0.42559751768863247	0.0	1.0384993362548494	-0.44603336159325846	0.0	1.118402889761423	-0.43200493484588726	0.0
1	0.03354430379746835	0.9844660347576765	-0.5714581814510197	0.0	0.9862905963453348	-0.5676095015324367	0.0	0.9912315991360374	-0.6773165854367051	0.0	0.97786728264505	-0.7936659273614627	0.0	1.0118130788708402	-0.8116488070722087	0.0	1.0014648933571046	-0.8160076794827739	0.0	0.9683404038589242	-0.8082272898515748	0.0	0.9865423618192072	-0.5660985297470374	0.0	0.990121666584416	-0.6769823605436875	0.0	0.9783192109146911	-0.7853302720905655	0.0	1.009681652121311	-0.8046020472388538	0.0	1.004353396886265	-0.8017524137866147	0.0	0.9642001013056036	-0.8006711239382769	0.0	0.9801997829015106	-0.4056319919186539	0.0	0.9708429941620079	-0.3273102817766419	0.0	1.002294015049558	-0.36351505507466914	0.0	0.9807039612467712	-0.42722411110913805	0.0	1.0578659158698587	-0.4416921869765406	0.0	1.12734733600968	-0.4254107573504346	0.0	0.9709607499631624	-0.42397006652543234	0.0	1.0385428265810488	-0.44390479658401666	0.0	1.1171305351493477	-0.42975519816095087	0.0
2	0.0670886075949367	0.9852312303834296	-0.5697496065209894	0.0	0.9872359708059784	-0.5652626881483249	0.0	0.9925182712929994	-0.6761346172718924	0.0	0.9783133413767082	-0.7914771755406874	0.0	1.0118254159307272	-0.8101401166020744	0.0	1.002006614418186	-0.8141562506534408	0.0	0.9686700602264228	-0.8063911271457977	0.0	0.9863766625669845	-0.5638259792005287	0.0	0.9904866341651385	-0.6756004255663024	0.0	0.9778817713457946	-0.7839868355563937	0.0	1.0092696199850548	-0.8037262908858932	0.0	1.0034137203549094	-0.8010624712221391	0.0	0.9636889675909963	-0.7990168675599267	0.0	0.9799104034770973	-0.40431882025172844	0.0	0.9705206346393801	-0.3261530776157171	0.0	1.0020665558001518	-0.362404674328798	0.0	0.9808078048614198	-0.42567282716943894	0.0	1.0581339663469884	-0.4402818762006572	0.0	1.126723806579343	-0.4234681775754053	0.0	0.9708666641684516	-0.42231842804857417	0.0	1.0386758482593845	-0.4417656328784342	0.0	1.1164067084153306	-0.42739855421209444	0.0
3	0.10063291139240506	0.9859247855701334	-0.567955356667476	0.0	0.9880135613813815	-0.5629267522744013	0.0	0.9937927473453412	-0.674616361784749	0.0	0.9787183753426755	-0.7894346024310184	0.0	1.0119975152302243	-0.8086481871903859	0.0	1.002569347450473	-0.8123741029372432	0.0	0.9689648067677078	-0.804547929466861	0.0	0.9863386109428901	-0.5615823920606811	0.0	0.9911158142418925	-0.6740375298963621	0.0	0.977710389856404	-0.7824096713974169	0.0	1.0092383862847	-0.8026516988803574	0.0	1.0029682718520032	-0.8000274089139898	0.0	0.9633860880642214	-0.7972065431378565	0.0	0.9797087286832371	-0.40275428255921203	0.0	0.9702332176477362	-0.3247488948693517	0.0	1.001894580288757	-0.36093499274035246	0.0	0.9808485024587882	-0.4240347590411044	0.0	1.0581608876761313	-0.4385956404619073	0.0	1.1262030286476925	-0.4213982826637258	0.0	0.9708416236261184	-0.42062475165505864	0.0	1.0389296239519465	-0.43964471991764903	0.0	1.116457709868365	-0.4249379561131096	0.0
4	0.1341772151898734	0.9865021415576483	-0.5661283525245	0.0	0.9886343848257042	-0.5606437191300181	0.0	0.9950187459742257	-0.6728641861828372	0.0	0.9790593919268901	-0.7875759444199553	0.0	1.012304132419195	-0.8071079342717999	0.0	1.0031585422164349	-0.8106757263599518	0.0	0.9692320606299739	-0.8027391066758307	0.0	0.9864026509117014	-0.5593870337922648	0.0	0.9919486829319603	-0.6723264046076487	0.0	0.9777313170293682	-0.7806328174703788	0.0	1.0095757511377421	-0.8013910647182513	0.0	1.0029533916344255	-0.7986838813264683	0.0	0.9632983909859978	-0.7953025061709361	0.0	0.9796029498369551	-0.400989578195234	0.0	0.970077303310227	-0.3230684549952973	0.0	1.0018558219586384	-0.3590913465307704	0.0	0.9808418159277924	-0.42226488016200786	0.0	1.0580179209230909	-0.4367302500645285	0.0	1.125806758633377	-0.4192591260478824	0.0	0.9708156447814861	-0.4188911042705445	0.0	1.039296438038054	-0.4376570626887354	0.0	1.1172413709297833	-0.4224243332306487	0.0
5	0.16772151898734178	0.986861496755377	-0.5643777266113208	0.0	0.9890864911672675	-0.558541038584737	0.0	0.9962012539915325	-0.6710304495303291	0.0	0.9793255374787941	-0.7858948626286725	0.0	1.0127261681752413	-0.8054422248551723	0.0	1.0037927505156372	-0.8090365435892299	0.0	0.9694736651557156	-0.8010505996742731	0.0	0.9864978556495888	-0.5573219613663896	0.0	0.9928780594138562	-0.6705576748437818	0.0	0.9778647573980483	-0.7787740324454887	0.0	1.010238722722773	-0.7999739111216754	0.0	1.003264745196672	-0.7971253010539776	0.0	0.9634009990874987	-0.7934514170809481	0.0	0.9796154657742896	-0.3991560042671847	0.0	0.970183614695957	-0.32113534839695734	0.0	1.0020293047063804	-0.35700930385474605	0.0	0.9808026883242753	-0.4203860247520224	0.0	1.057855722868777	-0.4349234787989042	0.0	1.125614420461499	-0.4172199070301119	0.0	0.9707266952170127	-0.4171562878585734	0.0	1.0396931893270893	-0.4360370344394069	0.0	1.118443574128619	-0.4200532230915662	0.0
6	0.20126582278481012	0.9868475580943837	-0.5628043740504517	0.0	0.9892712748042345	-0.5567757604444526	0.0	0.9974062731129647	-0.6692671873852325	0.0	0.9795371033426793	-0.7843901173871907	0.0	1.0132460418795066	-0.8036677879693235	0.0	1.004461959487074	-0.8074531776351026	0.0	0.9696809196777695	-0.7995948820279789	0.0	0.9864951796675255	-0.5555167913599349	0.0	0.9938313570043825	-0.6688797204249861	0.0	0.9780714699634114	-0.7770055278500335	0.0	1.011162428098434	-0.7984582185969085	0.0	1.0038156321586658	-0.79547009652148	0.0	0.9636443562708772	-0.7918246189878645	0.0	0.9797737206025726	-0.3974012991058038	0.0	0.9706886371678062	-0.31905115937143075	0.0	1.0024722030486732	-0.35491902393686536	0.0	0.9807542000120458	-0.4185249689275002	0.0	1.0578136448463549	-0.4335034576404943	0.0	1.125766672994798	-0.4155797612695971	0.0	0.9705906010772584	-0.4154890641683227	0.0	1.0399203161492043	-0.4350751307836575	0.0	1.119411512346732	-0.4183172773720129	0.0
7	0.23481012658227846	0.9863264329510123	-0.5614897424732891	0.0	0.9890224760333581	-0.5554757716744021	0.0	0.9987240040668162	-0.667752610063206	0.0	0.9797338585174603	-0.7831070374702068	0.0	1.0138151401460636	-0.8019343863895294	0.0	1.005125445120826	-0.8059801117907012	0.0	0.9698635433597275	-0.7984584066352214	0.0	0.9862222651985955	-0.5541204085407162	0.0	0.9947729107035155	-0.6674793769012493	0.0	0.9783175004699659	-0.7755066404491497	0.0	1.0122235612836314	-0.7969735905370384	0.0	1.0044943662566936	-0.7938720833763007	0.0	0.9639585995223311	-0.7905362067843555	0.0	0.9800906244836131	-0.3958558904677142	0.0	0.9717053914433055	-0.31702793323067313	0.0	1.0032233537173934	-0.35305721327106543	0.0	0.9807523186648083	-0.4168731539514293	0.0	1.0579244307795292	-0.4328377701359791	0.0	1.1263471628236765	-0.4148107254177354	0.0	0.9704822424609081	-0.41398036060645976	0.0	1.0395651433170205	-0.43505510944126635	0.0	1.1190147137291218	-0.4181085981662407	0.0
8	0.2683544303797468	0.9852477892860928	-0.5605561540810137	0.0	0.9881884932262651	-0.5547601590909755	0.0	1.0002011677993856	-0.6666780522688918	0.0	0.9799470565735453	-0.7821145922959113	0.0	1.0143507725651275	-0.8004371473788949	0.0	1.0057680591637672	-0.8046865281235914	0.0	0.9700591617149785	-0.7976674946985632	0.0	0.985509589769493	-0.5532915852583562	0.0	0.9956393560065867	-0.6665184246700934	0.0	0.9785360868041177	-0.7744058011689349	0.0	1.0132594316592076	-0.7956936420396904	0.0	1.0051434106952102	-0.7924977737792829	0.0	0.9642633326386295	-0.7896188292075432	0.0	0.9805832179784846	-0.39464185489579057	0.0	0.9733411898613799	-0.31537397497148484	0.0	1.004322726772698	-0.3516540944502705	0.0	0.9808850651081108	-0.4156408930794776	0.0	1.0581015647476282	-0.43328192927442755	0.0	1.1273004013122856	-0.41556948081550765	0.0	0.9704610479007221	-0.41277621046173135	0.0	1.0378751985526296	-0.4362683584329942	0.0	1.1155424527652058	-0.4206759528951288	0.0
9	0.3018987341772152	0.9836427982626161	-0.5601883168270576	0.0	0.9866955039103512	-0.5547583325554816	0.0	1.001783934509207	-0.6661782585197612	0.0	0.9801849880186456	-0.781476533697435	0.0	1.014788101738487	-0.7993172401594136	0.0	1.0064296171431202	-0.8036264742592397	0.0	0.9702858924778776	-0.7972244935564465	0.0	0.9842419823702167	-0.5531793308461097	0.0	0.9963064157408228	-0.66608098850222	0.0	0.97863046125613	-0.773767065878415	0.0	1.0141270501778616	-0.7947642209344055	0.0	1.0056157686133975	-0.7914751804873501	0.0	0.9644767461827073	-0.789085983992979	0.0	0.9812904414138469	-0.3939154323105373	0.0	0.9757054697318746	-0.3144295456390488	0.0	1.005802952933065	-0.3509869966521376	0.0	0.9812360092442038	-0.4150418245172997	0.0	1.0581861856410086	-0.4351506749690596	0.0	1.1284460651801937	-0.4186254435566435	0.0	0.9705381703909366	-0.41209475779770444	0.0	1.0338066250964895	-0.4390507538894989	0.0	1.1068970769156965	-0.42736712097225565	0.0
10	0.33544303797468356	0.9815995761028931	-0.560555627231922	0.0	0.9845580123146609	-0.5555688675880696	0.0	1.0033168061460307	-0.6663041664257263	0.0	0.980426378854766	-0.781287911156481	0.0	1.015140036185201	-0.7986567169919848	0.0	1.0071684351727517	-0.8028742642277306	0.0	0.970504453575478	-0.7971815453293196	0.0	0.9824213680822494	-0.5538827558878938	0.0	0.996650296812145	-0.6661827306625051	0.0	0.9785277166299613	-0.7736467298164751	0.0	1.0147686090787613	-0.7942775376955594	0.0	1.0058752819267374	-0.7908865650860544	0.0	0.9645547878285755	-0.7890107689008674	0.0	0.9822490182727045	-0.39387970882195156	0.0	0.9788522434632201	-0.314494908619662	0.0	1.0076772754861478	-0.35136920578256076	0.0	0.9818502818389448	-0.41526648868491456	0.0	1.0579861590572615	-0.4387142675705402	0.0	1.1294957873658023	-0.42472906583370174	0.0	0.9706947648158372	-0.4121600469779203	0.0	1.026508181677921	-0.44367564028980777	0.0	1.0913709713586135	-0.43905721597376046	0.0
